<svg width="48" height="48" viewBox="0 0 48 48" fill="none" xmlns="http://www.w3.org/2000/svg">
  <circle cx="24" cy="24" r="24" fill="#BFDBFE"/>
  
  <!-- Hair -->
  <path d="M14 18C14 14 18 10 24 10C30 10 34 14 34 18V24C34 24 32 25 32 28C32 31 34 31 34 31C34 31 32 38 24 38C16 38 14 31 14 31C14 31 16 31 16 28C16 25 14 24 14 24V18Z" fill="#1E293B"/>
  
  <!-- Face -->
  <circle cx="24" cy="26" r="10" fill="#FBBF24"/>
  
  <!-- Eyes -->
  <circle cx="20" cy="24" r="1.5" fill="#1E293B"/>
  <circle cx="28" cy="24" r="1.5" fill="#1E293B"/>
  
  <!-- Smile -->
  <path d="M20 29C20 29 21 32 24 32C27 32 28 29 28 29" stroke="#1E293B" stroke-width="1.5" stroke-linecap="round"/>
  
  <!-- Earrings -->
  <circle cx="14" cy="26" r="1" fill="#3B82F6"/>
  <circle cx="34" cy="26" r="1" fill="#3B82F6"/>
  
  <!-- Suit Collar -->
  <path d="M18 36V42H30V36" fill="#3B82F6"/>
  <path d="M24 36V42" stroke="#1E293B" stroke-width="1"/>
</svg> 